<svg xmlns="http://www.w3.org/2000/svg" width="1100" height="1026" viewBox="0 0 1100 1026">
<rect width="100%" height="100%" fill="#0b1020"/>
<text x="30" y="34" font-family="Inter, Arial, sans-serif" font-size="24" fill="#f8fafc" font-weight="700">Most crowded minutes in the sample</text>
<text x="30" y="56" font-family="Inter, Arial, sans-serif" font-size="13" fill="#94a3b8">Top airport-proximate minute buckets by movement count</text>
<text x="208" y="93.28" text-anchor="end" font-family="Inter, Arial, sans-serif" font-size="15" fill="#e2e8f0">2025-03-01 10:10:00</text>
<rect x="220" y="76" width="790.0" height="24" rx="5" fill="#22c55e"/>
<text x="1020.0" y="93.28" font-family="Inter, Arial, sans-serif" font-size="14" fill="#e2e8f0">6</text>
<text x="208" y="129.28" text-anchor="end" font-family="Inter, Arial, sans-serif" font-size="15" fill="#e2e8f0">2024-06-02 00:43:00</text>
<rect x="220" y="112" width="658.3333333333333" height="24" rx="5" fill="#22c55e"/>
<text x="888.3333333333333" y="129.28" font-family="Inter, Arial, sans-serif" font-size="14" fill="#e2e8f0">5</text>
<text x="208" y="165.28" text-anchor="end" font-family="Inter, Arial, sans-serif" font-size="15" fill="#e2e8f0">2024-06-02 04:45:00</text>
<rect x="220" y="148" width="658.3333333333333" height="24" rx="5" fill="#22c55e"/>
<text x="888.3333333333333" y="165.28" font-family="Inter, Arial, sans-serif" font-size="14" fill="#e2e8f0">5</text>
<text x="208" y="201.28" text-anchor="end" font-family="Inter, Arial, sans-serif" font-size="15" fill="#e2e8f0">2025-02-01 14:32:00</text>
<rect x="220" y="184" width="658.3333333333333" height="24" rx="5" fill="#22c55e"/>
<text x="888.3333333333333" y="201.28" font-family="Inter, Arial, sans-serif" font-size="14" fill="#e2e8f0">5</text>
<text x="208" y="237.28" text-anchor="end" font-family="Inter, Arial, sans-serif" font-size="15" fill="#e2e8f0">2025-02-01 20:39:00</text>
<rect x="220" y="220" width="658.3333333333333" height="24" rx="5" fill="#22c55e"/>
<text x="888.3333333333333" y="237.28" font-family="Inter, Arial, sans-serif" font-size="14" fill="#e2e8f0">5</text>
<text x="208" y="273.28" text-anchor="end" font-family="Inter, Arial, sans-serif" font-size="15" fill="#e2e8f0">2025-03-01 05:30:00</text>
<rect x="220" y="256" width="658.3333333333333" height="24" rx="5" fill="#22c55e"/>
<text x="888.3333333333333" y="273.28" font-family="Inter, Arial, sans-serif" font-size="14" fill="#e2e8f0">5</text>
<text x="208" y="309.28" text-anchor="end" font-family="Inter, Arial, sans-serif" font-size="15" fill="#e2e8f0">2025-03-01 08:07:00</text>
<rect x="220" y="292" width="658.3333333333333" height="24" rx="5" fill="#22c55e"/>
<text x="888.3333333333333" y="309.28" font-family="Inter, Arial, sans-serif" font-size="14" fill="#e2e8f0">5</text>
<text x="208" y="345.28" text-anchor="end" font-family="Inter, Arial, sans-serif" font-size="15" fill="#e2e8f0">2025-03-01 09:48:00</text>
<rect x="220" y="328" width="658.3333333333333" height="24" rx="5" fill="#22c55e"/>
<text x="888.3333333333333" y="345.28" font-family="Inter, Arial, sans-serif" font-size="14" fill="#e2e8f0">5</text>
<text x="208" y="381.28" text-anchor="end" font-family="Inter, Arial, sans-serif" font-size="15" fill="#e2e8f0">2025-03-01 11:35:00</text>
<rect x="220" y="364" width="658.3333333333333" height="24" rx="5" fill="#22c55e"/>
<text x="888.3333333333333" y="381.28" font-family="Inter, Arial, sans-serif" font-size="14" fill="#e2e8f0">5</text>
<text x="208" y="417.28" text-anchor="end" font-family="Inter, Arial, sans-serif" font-size="15" fill="#e2e8f0">2025-03-01 12:11:00</text>
<rect x="220" y="400" width="658.3333333333333" height="24" rx="5" fill="#22c55e"/>
<text x="888.3333333333333" y="417.28" font-family="Inter, Arial, sans-serif" font-size="14" fill="#e2e8f0">5</text>
<text x="208" y="453.28" text-anchor="end" font-family="Inter, Arial, sans-serif" font-size="15" fill="#e2e8f0">2025-03-01 22:31:00</text>
<rect x="220" y="436" width="658.3333333333333" height="24" rx="5" fill="#22c55e"/>
<text x="888.3333333333333" y="453.28" font-family="Inter, Arial, sans-serif" font-size="14" fill="#e2e8f0">5</text>
<text x="208" y="489.28" text-anchor="end" font-family="Inter, Arial, sans-serif" font-size="15" fill="#e2e8f0">2025-04-02 00:56:00</text>
<rect x="220" y="472" width="658.3333333333333" height="24" rx="5" fill="#22c55e"/>
<text x="888.3333333333333" y="489.28" font-family="Inter, Arial, sans-serif" font-size="14" fill="#e2e8f0">5</text>
<text x="208" y="525.28" text-anchor="end" font-family="Inter, Arial, sans-serif" font-size="15" fill="#e2e8f0">2022-04-01 12:51:00</text>
<rect x="220" y="508" width="526.6666666666666" height="24" rx="5" fill="#22c55e"/>
<text x="756.6666666666666" y="525.28" font-family="Inter, Arial, sans-serif" font-size="14" fill="#e2e8f0">4</text>
<text x="208" y="561.28" text-anchor="end" font-family="Inter, Arial, sans-serif" font-size="15" fill="#e2e8f0">2023-04-01 06:57:00</text>
<rect x="220" y="544" width="526.6666666666666" height="24" rx="5" fill="#22c55e"/>
<text x="756.6666666666666" y="561.28" font-family="Inter, Arial, sans-serif" font-size="14" fill="#e2e8f0">4</text>
<text x="208" y="597.28" text-anchor="end" font-family="Inter, Arial, sans-serif" font-size="15" fill="#e2e8f0">2023-04-01 10:27:00</text>
<rect x="220" y="580" width="526.6666666666666" height="24" rx="5" fill="#22c55e"/>
<text x="756.6666666666666" y="597.28" font-family="Inter, Arial, sans-serif" font-size="14" fill="#e2e8f0">4</text>
<text x="208" y="633.28" text-anchor="end" font-family="Inter, Arial, sans-serif" font-size="15" fill="#e2e8f0">2023-04-01 12:46:00</text>
<rect x="220" y="616" width="526.6666666666666" height="24" rx="5" fill="#22c55e"/>
<text x="756.6666666666666" y="633.28" font-family="Inter, Arial, sans-serif" font-size="14" fill="#e2e8f0">4</text>
<text x="208" y="669.28" text-anchor="end" font-family="Inter, Arial, sans-serif" font-size="15" fill="#e2e8f0">2023-04-01 16:39:00</text>
<rect x="220" y="652" width="526.6666666666666" height="24" rx="5" fill="#22c55e"/>
<text x="756.6666666666666" y="669.28" font-family="Inter, Arial, sans-serif" font-size="14" fill="#e2e8f0">4</text>
<text x="208" y="705.28" text-anchor="end" font-family="Inter, Arial, sans-serif" font-size="15" fill="#e2e8f0">2023-04-01 17:32:00</text>
<rect x="220" y="688" width="526.6666666666666" height="24" rx="5" fill="#22c55e"/>
<text x="756.6666666666666" y="705.28" font-family="Inter, Arial, sans-serif" font-size="14" fill="#e2e8f0">4</text>
<text x="208" y="741.28" text-anchor="end" font-family="Inter, Arial, sans-serif" font-size="15" fill="#e2e8f0">2023-04-01 17:48:00</text>
<rect x="220" y="724" width="526.6666666666666" height="24" rx="5" fill="#22c55e"/>
<text x="756.6666666666666" y="741.28" font-family="Inter, Arial, sans-serif" font-size="14" fill="#e2e8f0">4</text>
<text x="208" y="777.28" text-anchor="end" font-family="Inter, Arial, sans-serif" font-size="15" fill="#e2e8f0">2024-06-01 19:46:00</text>
<rect x="220" y="760" width="526.6666666666666" height="24" rx="5" fill="#22c55e"/>
<text x="756.6666666666666" y="777.28" font-family="Inter, Arial, sans-serif" font-size="14" fill="#e2e8f0">4</text>
<text x="208" y="813.28" text-anchor="end" font-family="Inter, Arial, sans-serif" font-size="15" fill="#e2e8f0">2024-07-01 11:53:00</text>
<rect x="220" y="796" width="526.6666666666666" height="24" rx="5" fill="#22c55e"/>
<text x="756.6666666666666" y="813.28" font-family="Inter, Arial, sans-serif" font-size="14" fill="#e2e8f0">4</text>
<text x="208" y="849.28" text-anchor="end" font-family="Inter, Arial, sans-serif" font-size="15" fill="#e2e8f0">2024-08-02 02:55:00</text>
<rect x="220" y="832" width="526.6666666666666" height="24" rx="5" fill="#22c55e"/>
<text x="756.6666666666666" y="849.28" font-family="Inter, Arial, sans-serif" font-size="14" fill="#e2e8f0">4</text>
<text x="208" y="885.28" text-anchor="end" font-family="Inter, Arial, sans-serif" font-size="15" fill="#e2e8f0">2025-02-01 07:03:00</text>
<rect x="220" y="868" width="526.6666666666666" height="24" rx="5" fill="#22c55e"/>
<text x="756.6666666666666" y="885.28" font-family="Inter, Arial, sans-serif" font-size="14" fill="#e2e8f0">4</text>
<text x="208" y="921.28" text-anchor="end" font-family="Inter, Arial, sans-serif" font-size="15" fill="#e2e8f0">2025-02-01 11:39:00</text>
<rect x="220" y="904" width="526.6666666666666" height="24" rx="5" fill="#22c55e"/>
<text x="756.6666666666666" y="921.28" font-family="Inter, Arial, sans-serif" font-size="14" fill="#e2e8f0">4</text>
<text x="208" y="957.28" text-anchor="end" font-family="Inter, Arial, sans-serif" font-size="15" fill="#e2e8f0">2025-02-01 13:36:00</text>
<rect x="220" y="940" width="526.6666666666666" height="24" rx="5" fill="#22c55e"/>
<text x="756.6666666666666" y="957.28" font-family="Inter, Arial, sans-serif" font-size="14" fill="#e2e8f0">4</text>
</svg>
