<svg xmlns="http://www.w3.org/2000/svg" width="1100" height="558" viewBox="0 0 1100 558">
<rect width="100%" height="100%" fill="#0b1020"/>
<text x="30" y="34" font-family="Inter, Arial, sans-serif" font-size="24" fill="#f8fafc" font-weight="700">Landing heading profile</text>
<text x="30" y="56" font-family="Inter, Arial, sans-serif" font-size="13" fill="#94a3b8">Heading sectors at landing points</text>
<text x="208" y="93.28" text-anchor="end" font-family="Inter, Arial, sans-serif" font-size="15" fill="#e2e8f0">270°</text>
<rect x="220" y="76" width="790.0" height="24" rx="5" fill="#a78bfa"/>
<text x="1020.0" y="93.28" font-family="Inter, Arial, sans-serif" font-size="14" fill="#e2e8f0">14,316</text>
<text x="208" y="129.28" text-anchor="end" font-family="Inter, Arial, sans-serif" font-size="15" fill="#e2e8f0">090°</text>
<rect x="220" y="112" width="78.02877898854429" height="24" rx="5" fill="#a78bfa"/>
<text x="308.0287789885443" y="129.28" font-family="Inter, Arial, sans-serif" font-size="14" fill="#e2e8f0">1,414</text>
<text x="208" y="165.28" text-anchor="end" font-family="Inter, Arial, sans-serif" font-size="15" fill="#e2e8f0">060°</text>
<rect x="220" y="148" width="23.839061190276613" height="24" rx="5" fill="#a78bfa"/>
<text x="253.83906119027662" y="165.28" font-family="Inter, Arial, sans-serif" font-size="14" fill="#e2e8f0">432</text>
<text x="208" y="201.28" text-anchor="end" font-family="Inter, Arial, sans-serif" font-size="15" fill="#e2e8f0">000°</text>
<rect x="220" y="184" width="21.631740709695446" height="24" rx="5" fill="#a78bfa"/>
<text x="251.63174070969544" y="201.28" font-family="Inter, Arial, sans-serif" font-size="14" fill="#e2e8f0">392</text>
<text x="208" y="237.28" text-anchor="end" font-family="Inter, Arial, sans-serif" font-size="15" fill="#e2e8f0">030°</text>
<rect x="220" y="220" width="15.616792400111764" height="24" rx="5" fill="#a78bfa"/>
<text x="245.61679240011176" y="237.28" font-family="Inter, Arial, sans-serif" font-size="14" fill="#e2e8f0">283</text>
<text x="208" y="273.28" text-anchor="end" font-family="Inter, Arial, sans-serif" font-size="15" fill="#e2e8f0">300°</text>
<rect x="220" y="256" width="15.616792400111764" height="24" rx="5" fill="#a78bfa"/>
<text x="245.61679240011176" y="273.28" font-family="Inter, Arial, sans-serif" font-size="14" fill="#e2e8f0">283</text>
<text x="208" y="309.28" text-anchor="end" font-family="Inter, Arial, sans-serif" font-size="15" fill="#e2e8f0">330°</text>
<rect x="220" y="292" width="12.747275775356245" height="24" rx="5" fill="#a78bfa"/>
<text x="242.74727577535626" y="309.28" font-family="Inter, Arial, sans-serif" font-size="14" fill="#e2e8f0">231</text>
<text x="208" y="345.28" text-anchor="end" font-family="Inter, Arial, sans-serif" font-size="15" fill="#e2e8f0">120°</text>
<rect x="220" y="328" width="3.8076278290025147" height="24" rx="5" fill="#a78bfa"/>
<text x="233.8076278290025" y="345.28" font-family="Inter, Arial, sans-serif" font-size="14" fill="#e2e8f0">69</text>
<text x="208" y="381.28" text-anchor="end" font-family="Inter, Arial, sans-serif" font-size="15" fill="#e2e8f0">240°</text>
<rect x="220" y="364" width="1.9865884325230512" height="24" rx="5" fill="#a78bfa"/>
<text x="231.98658843252306" y="381.28" font-family="Inter, Arial, sans-serif" font-size="14" fill="#e2e8f0">36</text>
<text x="208" y="417.28" text-anchor="end" font-family="Inter, Arial, sans-serif" font-size="15" fill="#e2e8f0">180°</text>
<rect x="220" y="400" width="1.876222408493993" height="24" rx="5" fill="#a78bfa"/>
<text x="231.876222408494" y="417.28" font-family="Inter, Arial, sans-serif" font-size="14" fill="#e2e8f0">34</text>
<text x="208" y="453.28" text-anchor="end" font-family="Inter, Arial, sans-serif" font-size="15" fill="#e2e8f0">150°</text>
<rect x="220" y="436" width="1.0484772282760548" height="24" rx="5" fill="#a78bfa"/>
<text x="231.04847722827606" y="453.28" font-family="Inter, Arial, sans-serif" font-size="14" fill="#e2e8f0">19</text>
<text x="208" y="489.28" text-anchor="end" font-family="Inter, Arial, sans-serif" font-size="15" fill="#e2e8f0">210°</text>
<rect x="220" y="472" width="1" height="24" rx="5" fill="#a78bfa"/>
<text x="231" y="489.28" font-family="Inter, Arial, sans-serif" font-size="14" fill="#e2e8f0">18</text>
</svg>
