<svg xmlns="http://www.w3.org/2000/svg" width="1100" height="1026" viewBox="0 0 1100 1026">
<rect width="100%" height="100%" fill="#0b1020"/>
<text x="30" y="34" font-family="Inter, Arial, sans-serif" font-size="24" fill="#f8fafc" font-weight="700">Top registrations by inferred movements</text>
<text x="30" y="56" font-family="Inter, Arial, sans-serif" font-size="13" fill="#94a3b8">Mumbai airspace sample, grouped by tail number</text>
<text x="208" y="93.28" text-anchor="end" font-family="Inter, Arial, sans-serif" font-size="15" fill="#e2e8f0">VT-IMX</text>
<rect x="220" y="76" width="790.0" height="24" rx="5" fill="#38bdf8"/>
<text x="1020.0" y="93.28" font-family="Inter, Arial, sans-serif" font-size="14" fill="#e2e8f0">576</text>
<text x="208" y="129.28" text-anchor="end" font-family="Inter, Arial, sans-serif" font-size="15" fill="#e2e8f0">VT-YAC</text>
<rect x="220" y="112" width="785.8854166666666" height="24" rx="5" fill="#38bdf8"/>
<text x="1015.8854166666666" y="129.28" font-family="Inter, Arial, sans-serif" font-size="14" fill="#e2e8f0">573</text>
<text x="208" y="165.28" text-anchor="end" font-family="Inter, Arial, sans-serif" font-size="15" fill="#e2e8f0">VT-TNV</text>
<rect x="220" y="148" width="763.9409722222222" height="24" rx="5" fill="#38bdf8"/>
<text x="993.9409722222222" y="165.28" font-family="Inter, Arial, sans-serif" font-size="14" fill="#e2e8f0">557</text>
<text x="208" y="201.28" text-anchor="end" font-family="Inter, Arial, sans-serif" font-size="15" fill="#e2e8f0">VT-ITN</text>
<rect x="220" y="184" width="739.2534722222222" height="24" rx="5" fill="#38bdf8"/>
<text x="969.2534722222222" y="201.28" font-family="Inter, Arial, sans-serif" font-size="14" fill="#e2e8f0">539</text>
<text x="208" y="237.28" text-anchor="end" font-family="Inter, Arial, sans-serif" font-size="15" fill="#e2e8f0">VT-YAB</text>
<rect x="220" y="220" width="736.5104166666666" height="24" rx="5" fill="#38bdf8"/>
<text x="966.5104166666666" y="237.28" font-family="Inter, Arial, sans-serif" font-size="14" fill="#e2e8f0">537</text>
<text x="208" y="273.28" text-anchor="end" font-family="Inter, Arial, sans-serif" font-size="15" fill="#e2e8f0">VT-YAG</text>
<rect x="220" y="256" width="733.7673611111111" height="24" rx="5" fill="#38bdf8"/>
<text x="963.7673611111111" y="273.28" font-family="Inter, Arial, sans-serif" font-size="14" fill="#e2e8f0">535</text>
<text x="208" y="309.28" text-anchor="end" font-family="Inter, Arial, sans-serif" font-size="15" fill="#e2e8f0">VT-IBF</text>
<rect x="220" y="292" width="725.5381944444443" height="24" rx="5" fill="#38bdf8"/>
<text x="955.5381944444443" y="309.28" font-family="Inter, Arial, sans-serif" font-size="14" fill="#e2e8f0">529</text>
<text x="208" y="345.28" text-anchor="end" font-family="Inter, Arial, sans-serif" font-size="15" fill="#e2e8f0">VT-TVE</text>
<rect x="220" y="328" width="693.9930555555555" height="24" rx="5" fill="#38bdf8"/>
<text x="923.9930555555555" y="345.28" font-family="Inter, Arial, sans-serif" font-size="14" fill="#e2e8f0">506</text>
<text x="208" y="381.28" text-anchor="end" font-family="Inter, Arial, sans-serif" font-size="15" fill="#e2e8f0">VT-ILQ</text>
<rect x="220" y="364" width="683.0208333333333" height="24" rx="5" fill="#38bdf8"/>
<text x="913.0208333333333" y="381.28" font-family="Inter, Arial, sans-serif" font-size="14" fill="#e2e8f0">498</text>
<text x="208" y="417.28" text-anchor="end" font-family="Inter, Arial, sans-serif" font-size="15" fill="#e2e8f0">VT-YAI</text>
<rect x="220" y="400" width="676.1631944444443" height="24" rx="5" fill="#38bdf8"/>
<text x="906.1631944444443" y="417.28" font-family="Inter, Arial, sans-serif" font-size="14" fill="#e2e8f0">493</text>
<text x="208" y="453.28" text-anchor="end" font-family="Inter, Arial, sans-serif" font-size="15" fill="#e2e8f0">VT-YAA</text>
<rect x="220" y="436" width="674.7916666666666" height="24" rx="5" fill="#38bdf8"/>
<text x="904.7916666666666" y="453.28" font-family="Inter, Arial, sans-serif" font-size="14" fill="#e2e8f0">492</text>
<text x="208" y="489.28" text-anchor="end" font-family="Inter, Arial, sans-serif" font-size="15" fill="#e2e8f0">VT-IPM</text>
<rect x="220" y="472" width="659.7048611111111" height="24" rx="5" fill="#38bdf8"/>
<text x="889.7048611111111" y="489.28" font-family="Inter, Arial, sans-serif" font-size="14" fill="#e2e8f0">481</text>
<text x="208" y="525.28" text-anchor="end" font-family="Inter, Arial, sans-serif" font-size="15" fill="#e2e8f0">VT-TVD</text>
<rect x="220" y="508" width="658.3333333333333" height="24" rx="5" fill="#38bdf8"/>
<text x="888.3333333333333" y="525.28" font-family="Inter, Arial, sans-serif" font-size="14" fill="#e2e8f0">480</text>
<text x="208" y="561.28" text-anchor="end" font-family="Inter, Arial, sans-serif" font-size="15" fill="#e2e8f0">VT-YAH</text>
<rect x="220" y="544" width="655.5902777777777" height="24" rx="5" fill="#38bdf8"/>
<text x="885.5902777777777" y="561.28" font-family="Inter, Arial, sans-serif" font-size="14" fill="#e2e8f0">478</text>
<text x="208" y="597.28" text-anchor="end" font-family="Inter, Arial, sans-serif" font-size="15" fill="#e2e8f0">VT-TQM</text>
<rect x="220" y="580" width="651.4756944444443" height="24" rx="5" fill="#38bdf8"/>
<text x="881.4756944444443" y="597.28" font-family="Inter, Arial, sans-serif" font-size="14" fill="#e2e8f0">475</text>
<text x="208" y="633.28" text-anchor="end" font-family="Inter, Arial, sans-serif" font-size="15" fill="#e2e8f0">VT-TNW</text>
<rect x="220" y="616" width="647.3611111111111" height="24" rx="5" fill="#38bdf8"/>
<text x="877.3611111111111" y="633.28" font-family="Inter, Arial, sans-serif" font-size="14" fill="#e2e8f0">472</text>
<text x="208" y="669.28" text-anchor="end" font-family="Inter, Arial, sans-serif" font-size="15" fill="#e2e8f0">VT-RTF</text>
<rect x="220" y="652" width="619.9305555555555" height="24" rx="5" fill="#38bdf8"/>
<text x="849.9305555555555" y="669.28" font-family="Inter, Arial, sans-serif" font-size="14" fill="#e2e8f0">452</text>
<text x="208" y="705.28" text-anchor="end" font-family="Inter, Arial, sans-serif" font-size="15" fill="#e2e8f0">VT-IUZ</text>
<rect x="220" y="688" width="618.5590277777777" height="24" rx="5" fill="#38bdf8"/>
<text x="848.5590277777777" y="705.28" font-family="Inter, Arial, sans-serif" font-size="14" fill="#e2e8f0">451</text>
<text x="208" y="741.28" text-anchor="end" font-family="Inter, Arial, sans-serif" font-size="15" fill="#e2e8f0">VT-IMI</text>
<rect x="220" y="724" width="614.4444444444443" height="24" rx="5" fill="#38bdf8"/>
<text x="844.4444444444443" y="741.28" font-family="Inter, Arial, sans-serif" font-size="14" fill="#e2e8f0">448</text>
<text x="208" y="777.28" text-anchor="end" font-family="Inter, Arial, sans-serif" font-size="15" fill="#e2e8f0">VT-TVA</text>
<rect x="220" y="760" width="614.4444444444443" height="24" rx="5" fill="#38bdf8"/>
<text x="844.4444444444443" y="777.28" font-family="Inter, Arial, sans-serif" font-size="14" fill="#e2e8f0">448</text>
<text x="208" y="813.28" text-anchor="end" font-family="Inter, Arial, sans-serif" font-size="15" fill="#e2e8f0">VT-YAD</text>
<rect x="220" y="796" width="613.0729166666666" height="24" rx="5" fill="#38bdf8"/>
<text x="843.0729166666666" y="813.28" font-family="Inter, Arial, sans-serif" font-size="14" fill="#e2e8f0">447</text>
<text x="208" y="849.28" text-anchor="end" font-family="Inter, Arial, sans-serif" font-size="15" fill="#e2e8f0">VT-IIS</text>
<rect x="220" y="832" width="607.5868055555555" height="24" rx="5" fill="#38bdf8"/>
<text x="837.5868055555555" y="849.28" font-family="Inter, Arial, sans-serif" font-size="14" fill="#e2e8f0">443</text>
<text x="208" y="885.28" text-anchor="end" font-family="Inter, Arial, sans-serif" font-size="15" fill="#e2e8f0">VT-ILH</text>
<rect x="220" y="868" width="606.2152777777777" height="24" rx="5" fill="#38bdf8"/>
<text x="836.2152777777777" y="885.28" font-family="Inter, Arial, sans-serif" font-size="14" fill="#e2e8f0">442</text>
<text x="208" y="921.28" text-anchor="end" font-family="Inter, Arial, sans-serif" font-size="15" fill="#e2e8f0">VT-IBT</text>
<rect x="220" y="904" width="596.6145833333333" height="24" rx="5" fill="#38bdf8"/>
<text x="826.6145833333333" y="921.28" font-family="Inter, Arial, sans-serif" font-size="14" fill="#e2e8f0">435</text>
<text x="208" y="957.28" text-anchor="end" font-family="Inter, Arial, sans-serif" font-size="15" fill="#e2e8f0">VT-TNQ</text>
<rect x="220" y="940" width="593.8715277777777" height="24" rx="5" fill="#38bdf8"/>
<text x="823.8715277777777" y="957.28" font-family="Inter, Arial, sans-serif" font-size="14" fill="#e2e8f0">433</text>
</svg>
